<mxfile host="app.diagrams.net" agent="Mozilla/5.0 (Macintosh; Intel Mac OS X 10_15_7) AppleWebKit/537.36 (KHTML, like Gecko) Chrome/126.0.0.0 Safari/537.36 Edg/126.0.0.0" version="24.7.5">
  <diagram name="Page-1" id="T0VXZc8v9pY_-jcHJENn">
    <mxGraphModel dx="1071" dy="1138" grid="1" gridSize="10" guides="1" tooltips="1" connect="1" arrows="1" fold="1" page="1" pageScale="1" pageWidth="850" pageHeight="1100" math="0" shadow="0">
      <root>
        <mxCell id="0" />
        <mxCell id="1" parent="0" />
        <mxCell id="D0hljkLHYirHcF4gpA4y-30" style="edgeStyle=orthogonalEdgeStyle;rounded=0;orthogonalLoop=1;jettySize=auto;html=1;exitX=0.5;exitY=1;exitDx=0;exitDy=0;entryX=0.5;entryY=0;entryDx=0;entryDy=0;" edge="1" parent="1" source="D0hljkLHYirHcF4gpA4y-15" target="D0hljkLHYirHcF4gpA4y-19">
          <mxGeometry relative="1" as="geometry" />
        </mxCell>
        <mxCell id="D0hljkLHYirHcF4gpA4y-15" value="CodingTaskMsg" style="rounded=1;whiteSpace=wrap;html=1;fillColor=#f5f5f5;strokeColor=#666666;fontColor=#333333;" vertex="1" parent="1">
          <mxGeometry x="63.75" y="270" width="105" height="30" as="geometry" />
        </mxCell>
        <mxCell id="D0hljkLHYirHcF4gpA4y-32" style="edgeStyle=orthogonalEdgeStyle;rounded=0;orthogonalLoop=1;jettySize=auto;html=1;exitX=0.5;exitY=1;exitDx=0;exitDy=0;entryX=0.5;entryY=0;entryDx=0;entryDy=0;" edge="1" parent="1" source="D0hljkLHYirHcF4gpA4y-16" target="D0hljkLHYirHcF4gpA4y-20">
          <mxGeometry relative="1" as="geometry" />
        </mxCell>
        <mxCell id="D0hljkLHYirHcF4gpA4y-16" value="CodeGenMsg" style="rounded=1;whiteSpace=wrap;html=1;fillColor=#f5f5f5;strokeColor=#666666;fontColor=#333333;" vertex="1" parent="1">
          <mxGeometry x="65" y="373" width="102.5" height="30" as="geometry" />
        </mxCell>
        <mxCell id="D0hljkLHYirHcF4gpA4y-17" value="CodingResultMsg" style="rounded=1;whiteSpace=wrap;html=1;fillColor=#f5f5f5;strokeColor=#666666;fontColor=#333333;" vertex="1" parent="1">
          <mxGeometry x="58.75" y="620" width="112.5" height="35" as="geometry" />
        </mxCell>
        <mxCell id="D0hljkLHYirHcF4gpA4y-31" style="edgeStyle=orthogonalEdgeStyle;rounded=0;orthogonalLoop=1;jettySize=auto;html=1;exitX=0.5;exitY=1;exitDx=0;exitDy=0;entryX=0.5;entryY=0;entryDx=0;entryDy=0;endArrow=none;endFill=0;" edge="1" parent="1" source="D0hljkLHYirHcF4gpA4y-19" target="D0hljkLHYirHcF4gpA4y-16">
          <mxGeometry relative="1" as="geometry" />
        </mxCell>
        <mxCell id="D0hljkLHYirHcF4gpA4y-19" value="Coder Agent" style="rounded=1;whiteSpace=wrap;html=1;fillColor=#dae8fc;strokeColor=#6c8ebf;" vertex="1" parent="1">
          <mxGeometry x="62.5" y="320" width="107.5" height="40" as="geometry" />
        </mxCell>
        <mxCell id="D0hljkLHYirHcF4gpA4y-33" style="edgeStyle=orthogonalEdgeStyle;rounded=0;orthogonalLoop=1;jettySize=auto;html=1;exitX=0.5;exitY=1;exitDx=0;exitDy=0;entryX=0.5;entryY=0;entryDx=0;entryDy=0;" edge="1" parent="1" source="D0hljkLHYirHcF4gpA4y-20" target="D0hljkLHYirHcF4gpA4y-26">
          <mxGeometry relative="1" as="geometry" />
        </mxCell>
        <mxCell id="D0hljkLHYirHcF4gpA4y-20" value="Executor Agent" style="rounded=1;whiteSpace=wrap;html=1;fillColor=#dae8fc;strokeColor=#6c8ebf;" vertex="1" parent="1">
          <mxGeometry x="60" y="420" width="110" height="40" as="geometry" />
        </mxCell>
        <mxCell id="D0hljkLHYirHcF4gpA4y-35" style="edgeStyle=orthogonalEdgeStyle;rounded=0;orthogonalLoop=1;jettySize=auto;html=1;exitX=0.5;exitY=1;exitDx=0;exitDy=0;entryX=0.5;entryY=0;entryDx=0;entryDy=0;" edge="1" parent="1" source="D0hljkLHYirHcF4gpA4y-21" target="D0hljkLHYirHcF4gpA4y-17">
          <mxGeometry relative="1" as="geometry" />
        </mxCell>
        <mxCell id="D0hljkLHYirHcF4gpA4y-36" style="edgeStyle=orthogonalEdgeStyle;rounded=0;orthogonalLoop=1;jettySize=auto;html=1;exitX=1;exitY=0.5;exitDx=0;exitDy=0;entryX=0.5;entryY=1;entryDx=0;entryDy=0;" edge="1" parent="1" source="D0hljkLHYirHcF4gpA4y-21" target="D0hljkLHYirHcF4gpA4y-29">
          <mxGeometry relative="1" as="geometry" />
        </mxCell>
        <mxCell id="D0hljkLHYirHcF4gpA4y-21" value="Reviewer Agent" style="rounded=1;whiteSpace=wrap;html=1;fillColor=#dae8fc;strokeColor=#6c8ebf;" vertex="1" parent="1">
          <mxGeometry x="60" y="540" width="110" height="40" as="geometry" />
        </mxCell>
        <mxCell id="D0hljkLHYirHcF4gpA4y-34" style="edgeStyle=orthogonalEdgeStyle;rounded=0;orthogonalLoop=1;jettySize=auto;html=1;exitX=0.5;exitY=1;exitDx=0;exitDy=0;entryX=0.5;entryY=0;entryDx=0;entryDy=0;" edge="1" parent="1" source="D0hljkLHYirHcF4gpA4y-26" target="D0hljkLHYirHcF4gpA4y-21">
          <mxGeometry relative="1" as="geometry" />
        </mxCell>
        <mxCell id="D0hljkLHYirHcF4gpA4y-26" value="ExecutionResultMsg" style="rounded=1;whiteSpace=wrap;html=1;fillColor=#f5f5f5;strokeColor=#666666;fontColor=#333333;" vertex="1" parent="1">
          <mxGeometry x="50" y="480" width="130" height="35" as="geometry" />
        </mxCell>
        <mxCell id="D0hljkLHYirHcF4gpA4y-37" style="edgeStyle=orthogonalEdgeStyle;rounded=0;orthogonalLoop=1;jettySize=auto;html=1;entryX=1;entryY=0.5;entryDx=0;entryDy=0;exitX=0.5;exitY=0;exitDx=0;exitDy=0;" edge="1" parent="1" source="D0hljkLHYirHcF4gpA4y-29" target="D0hljkLHYirHcF4gpA4y-19">
          <mxGeometry relative="1" as="geometry" />
        </mxCell>
        <mxCell id="D0hljkLHYirHcF4gpA4y-29" value="ReviewMsg" style="rounded=1;whiteSpace=wrap;html=1;fillColor=#f5f5f5;strokeColor=#666666;fontColor=#333333;" vertex="1" parent="1">
          <mxGeometry x="200" y="445" width="80" height="35" as="geometry" />
        </mxCell>
        <mxCell id="D0hljkLHYirHcF4gpA4y-38" value="Approved==False" style="text;html=1;align=center;verticalAlign=middle;whiteSpace=wrap;rounded=0;" vertex="1" parent="1">
          <mxGeometry x="200" y="515" width="60" height="30" as="geometry" />
        </mxCell>
        <mxCell id="D0hljkLHYirHcF4gpA4y-39" value="Approved==True" style="text;html=1;align=center;verticalAlign=middle;whiteSpace=wrap;rounded=0;" vertex="1" parent="1">
          <mxGeometry x="139" y="584" width="60" height="30" as="geometry" />
        </mxCell>
      </root>
    </mxGraphModel>
  </diagram>
</mxfile>
